<svg width="130" height="32" viewBox="0 0 130 32" fill="none" xmlns="http://www.w3.org/2000/svg">
<path id="KMarketer" d="M2.064 8.224H5.808V15.112L12.144 8.224H16.776L10.104 15.64C10.68 16.44 11.744 17.936 13.296 20.128C14.848 22.304 16.008 23.928 16.776 25H12.408L7.488 18.376L5.808 20.248V25H2.064V8.224ZM34.2271 14.44L29.6911 23.608H27.4591L22.9471 14.44V25H19.2031V8.224H24.2671L28.5871 17.44L32.9311 8.224H37.9711V25H34.2271V14.44ZM52.8095 25H49.4255V23.44C48.4975 24.608 47.3455 25.192 45.9695 25.192C44.6095 25.192 43.4655 24.8 42.5375 24.016C41.6095 23.216 41.1455 22.16 41.1455 20.848C41.1455 19.52 41.6255 18.528 42.5855 17.872C43.5455 17.216 44.8575 16.888 46.5215 16.888H49.2095V16.816C49.2095 15.44 48.4815 14.752 47.0255 14.752C46.4015 14.752 45.7375 14.88 45.0335 15.136C44.3455 15.376 43.7615 15.68 43.2815 16.048L41.6735 13.72C43.3695 12.488 45.3055 11.872 47.4815 11.872C49.0495 11.872 50.3295 12.264 51.3215 13.048C52.3135 13.832 52.8095 15.072 52.8095 16.768V25ZM49.1855 20.08V19.456H46.9295C45.4895 19.456 44.7695 19.904 44.7695 20.8C44.7695 21.264 44.9375 21.624 45.2735 21.88C45.6255 22.12 46.1215 22.24 46.7615 22.24C47.4015 22.24 47.9615 22.048 48.4415 21.664C48.9375 21.264 49.1855 20.736 49.1855 20.08ZM62.9835 15.256C61.9115 15.256 61.1115 15.64 60.5835 16.408C60.0555 17.16 59.7915 18.16 59.7915 19.408V25H56.1915V12.088H59.7915V13.792C60.2555 13.264 60.8315 12.816 61.5195 12.448C62.2235 12.08 62.9355 11.888 63.6555 11.872L63.6795 15.256H62.9835ZM69.7587 25H66.1587V7.192H69.7587V16.336L73.7667 12.064H78.3027L73.3827 17.296L78.4947 25H74.2227L70.9347 20.056L69.7587 21.28V25ZM91.7161 23.128C90.2601 24.504 88.5481 25.192 86.5801 25.192C84.6281 25.192 83.0121 24.592 81.7321 23.392C80.4521 22.176 79.8121 20.552 79.8121 18.52C79.8121 16.488 80.4601 14.872 81.7561 13.672C83.0681 12.472 84.6121 11.872 86.3881 11.872C88.1641 11.872 89.6681 12.408 90.9001 13.48C92.1481 14.552 92.7721 16.024 92.7721 17.896V19.816H83.3641C83.4761 20.52 83.8441 21.096 84.4681 21.544C85.0921 21.992 85.7961 22.216 86.5801 22.216C87.8441 22.216 88.8841 21.792 89.7001 20.944L91.7161 23.128ZM89.1241 17.248C89.0441 16.48 88.7561 15.888 88.2601 15.472C87.7641 15.056 87.1561 14.848 86.4361 14.848C85.7321 14.848 85.0841 15.064 84.4921 15.496C83.9001 15.928 83.5561 16.512 83.4601 17.248H89.1241ZM99.6234 14.68V20.464C99.6234 20.96 99.7514 21.352 100.007 21.64C100.263 21.912 100.567 22.048 100.919 22.048C101.591 22.048 102.159 21.744 102.623 21.136L103.967 23.656C102.847 24.68 101.663 25.192 100.415 25.192C99.1834 25.192 98.1354 24.784 97.2714 23.968C96.4234 23.152 95.9994 22.04 95.9994 20.632V14.68H94.4874V12.088H95.9994V8.224H99.6234V12.088H102.743V14.68H99.6234ZM117.182 23.128C115.726 24.504 114.014 25.192 112.046 25.192C110.094 25.192 108.478 24.592 107.198 23.392C105.918 22.176 105.278 20.552 105.278 18.52C105.278 16.488 105.926 14.872 107.222 13.672C108.534 12.472 110.078 11.872 111.854 11.872C113.63 11.872 115.134 12.408 116.366 13.48C117.614 14.552 118.238 16.024 118.238 17.896V19.816H108.83C108.942 20.52 109.31 21.096 109.934 21.544C110.558 21.992 111.262 22.216 112.046 22.216C113.31 22.216 114.35 21.792 115.166 20.944L117.182 23.128ZM114.59 17.248C114.51 16.48 114.222 15.888 113.726 15.472C113.23 15.056 112.622 14.848 111.902 14.848C111.198 14.848 110.55 15.064 109.958 15.496C109.366 15.928 109.022 16.512 108.926 17.248H114.59ZM127.726 15.256C126.654 15.256 125.854 15.64 125.326 16.408C124.798 17.16 124.534 18.16 124.534 19.408V25H120.934V12.088H124.534V13.792C124.998 13.264 125.574 12.816 126.262 12.448C126.966 12.08 127.678 11.888 128.398 11.872L128.422 15.256H127.726Z" fill="white"/>
</svg>
